<?xml version="1.0" encoding="utf-8"?>
<!-- Generator: Adobe Illustrator 21.0.0, SVG Export Plug-In . SVG Version: 6.00 Build 0)  -->
<svg id="Layer_1" data-name="Layer 1" xmlns="http://www.w3.org/2000/svg" viewBox="0 0 35.81 42.76"><defs><style>.cls-1{fill:#fff;}</style></defs><title>Untitled-1</title><g id="Logo_1" data-name="Logo 1"><path class="cls-1" d="M36.6,4.31A62.21,62.21,0,0,0,26,3.05C25.11,3,24.24,3,23.34,3H22A64,64,0,0,0,11.4,4a45.7,45.7,0,0,0-5.31,1.3v12.4H11.4V9.62a61.72,61.72,0,0,1,9.28-1.19V32L24,33.16,27.32,32V8.37a63,63,0,0,1,9.28,1v8.4h5.31v-12A42.36,42.36,0,0,0,36.6,4.31Z" transform="translate(-6.09 -3)"/><polygon class="cls-1" points="30.5 23.53 30.5 27.49 19.89 34.76 17.91 36.13 15.92 34.76 5.3 27.49 5.3 23.53 0 23.53 0 30.48 5.3 34.13 15.92 41.39 17.91 42.76 19.89 41.39 30.5 34.13 35.81 30.48 35.81 23.53 30.5 23.53"/></g></svg>
